<svg width="69" height="22" viewBox="0 0 69 22" fill="none" xmlns="http://www.w3.org/2000/svg">
<g clip-path="url(#clip0_104_365)">
<path d="M35.8825 5.80461C35.8825 6.57338 35.2656 7.19266 34.4999 7.19266C33.7342 7.19266 33.1174 6.57338 33.1174 5.80461C33.1174 5.03584 33.7129 4.41655 34.4999 4.41655C35.2869 4.43791 35.8825 5.05719 35.8825 5.80461ZM30.1821 8.60207C30.1821 8.7302 30.1821 8.94375 30.1821 8.94375C30.1821 8.94375 29.5228 8.08956 28.1189 8.08956C25.8005 8.08956 23.9926 9.862 23.9926 12.3178C23.9926 14.7522 25.7792 16.546 28.1189 16.546C29.544 16.546 30.1821 15.6705 30.1821 15.6705V16.0335C30.1821 16.2043 30.3097 16.3325 30.4799 16.3325H32.2028V8.30311C32.2028 8.30311 30.6288 8.30311 30.4799 8.30311C30.3097 8.30311 30.1821 8.45259 30.1821 8.60207ZM30.1821 13.7486C29.8631 14.2184 29.225 14.6241 28.4593 14.6241C27.098 14.6241 26.0558 13.7699 26.0558 12.3178C26.0558 10.8657 27.098 10.0115 28.4593 10.0115C29.2037 10.0115 29.8843 10.4386 30.1821 10.887V13.7486ZM33.479 8.30311H35.5209V16.3325H33.479V8.30311ZM63.9801 8.08956C62.5763 8.08956 61.9169 8.94375 61.9169 8.94375V4.43791H59.875V16.3325C59.875 16.3325 61.449 16.3325 61.5978 16.3325C61.768 16.3325 61.8956 16.183 61.8956 16.0335V15.6705C61.8956 15.6705 62.555 16.546 63.9588 16.546C66.2772 16.546 68.0852 14.7522 68.0852 12.3178C68.0852 9.88335 66.2772 8.08956 63.9801 8.08956ZM63.6398 14.6027C62.8528 14.6027 62.2359 14.197 61.9169 13.7272V10.8657C62.2359 10.4386 62.9166 9.99013 63.6398 9.99013C65.001 9.99013 66.0433 10.8443 66.0433 12.2964C66.0433 13.7486 65.001 14.6027 63.6398 14.6027ZM58.8115 11.5704V16.3538H56.7696V11.8053C56.7696 10.4813 56.3442 9.94742 55.1956 9.94742C54.5788 9.94742 53.9407 10.2677 53.5365 10.7375V16.3325H51.4946V8.30311H53.1111C53.2813 8.30311 53.4089 8.45259 53.4089 8.60207V8.94375C54.0045 8.32446 54.7915 8.08956 55.5784 8.08956C56.4718 8.08956 57.2162 8.34582 57.8118 8.85833C58.535 9.45626 58.8115 10.225 58.8115 11.5704ZM46.5387 8.08956C45.1349 8.08956 44.4755 8.94375 44.4755 8.94375V4.43791H42.4336V16.3325C42.4336 16.3325 44.0076 16.3325 44.1565 16.3325C44.3266 16.3325 44.4543 16.183 44.4543 16.0335V15.6705C44.4543 15.6705 45.1136 16.546 46.5174 16.546C48.8359 16.546 50.6438 14.7522 50.6438 12.3178C50.6651 9.88335 48.8571 8.08956 46.5387 8.08956ZM46.1984 14.6027C45.4114 14.6027 44.7946 14.197 44.4755 13.7272V10.8657C44.7946 10.4386 45.4752 9.99013 46.1984 9.99013C47.5597 9.99013 48.6019 10.8443 48.6019 12.2964C48.6019 13.7486 47.5597 14.6027 46.1984 14.6027ZM40.6682 8.08956C41.285 8.08956 41.6041 8.19633 41.6041 8.19633V10.0969C41.6041 10.0969 39.9025 9.52032 38.839 10.7375V16.3538H36.7971V8.30311C36.7971 8.30311 38.3711 8.30311 38.5199 8.30311C38.6901 8.30311 38.8177 8.45259 38.8177 8.60207V8.94375C39.2006 8.4953 40.0301 8.08956 40.6682 8.08956ZM19.4621 15.6064C19.3557 15.3502 19.2494 15.0725 19.143 14.8376C18.9729 14.4533 18.8027 14.0902 18.6538 13.7486L18.6325 13.7272C17.1649 10.524 15.5909 7.27808 13.9319 4.07488L13.8681 3.94675C13.6979 3.62643 13.5278 3.28475 13.3576 2.94308C13.1449 2.55869 12.9322 2.15296 12.5919 1.76857C11.9112 0.914383 10.9328 0.44458 9.89059 0.44458C8.82709 0.44458 7.86995 0.914383 7.16804 1.72586C6.84899 2.11025 6.61502 2.51598 6.40232 2.90037C6.23216 3.24204 6.062 3.58372 5.89184 3.90404L5.82803 4.03217C4.19024 7.23537 2.595 10.4813 1.12737 13.6845L1.1061 13.7272C0.957211 14.0689 0.787052 14.4319 0.616892 14.8163C0.510542 15.0512 0.404193 15.3074 0.297843 15.5851C0.0213335 16.3752 -0.0637463 17.1226 0.0426034 17.8914C0.276573 19.493 1.34007 20.8383 2.8077 21.4362C3.36072 21.6711 3.935 21.7779 4.53056 21.7779C4.70072 21.7779 4.91342 21.7566 5.08358 21.7352C5.78549 21.6498 6.50867 21.4149 7.21058 21.0091C8.08265 20.518 8.91217 19.8133 9.84805 18.7883C10.7839 19.8133 11.6347 20.518 12.4855 21.0091C13.1874 21.4149 13.9106 21.6498 14.6125 21.7352C14.7827 21.7566 14.9954 21.7779 15.1655 21.7779C15.7611 21.7779 16.3567 21.6711 16.8884 21.4362C18.3773 20.8383 19.4195 19.4716 19.6535 17.8914C19.8237 17.1439 19.7386 16.3965 19.4621 15.6064ZM9.86932 16.7169C8.72074 15.2647 7.9763 13.898 7.72106 12.7449C7.61471 12.2537 7.59344 11.8266 7.65725 11.4422C7.69979 11.1006 7.82741 10.8016 7.99756 10.5453C8.40169 9.96877 9.08233 9.60574 9.86932 9.60574C10.6563 9.60574 11.3582 9.94742 11.7411 10.5453C11.9112 10.8016 12.0389 11.1006 12.0814 11.4422C12.1452 11.8266 12.1239 12.2751 12.0176 12.7449C11.7623 13.8767 11.0179 15.2434 9.86932 16.7169ZM18.356 17.7205C18.2071 18.831 17.4627 19.7919 16.4205 20.219C15.91 20.4326 15.357 20.4966 14.8039 20.4326C14.2722 20.3685 13.7405 20.1977 13.1874 19.8773C12.4217 19.4503 11.656 18.7883 10.7627 17.8059C12.1665 16.0762 13.0173 14.496 13.3363 13.0866C13.4852 12.4246 13.5065 11.8266 13.4427 11.2714C13.3576 10.7375 13.1662 10.2464 12.8684 9.81929C12.209 8.85833 11.103 8.30311 9.86932 8.30311C8.63566 8.30311 7.52963 8.87968 6.87026 9.81929C6.57248 10.2464 6.38105 10.7375 6.29597 11.2714C6.21089 11.8266 6.23216 12.4459 6.40232 13.0866C6.72137 14.496 7.59344 16.0976 8.97598 17.8273C8.10392 18.8096 7.31693 19.4716 6.55121 19.8987C5.99819 20.219 5.46644 20.3899 4.93469 20.4539C4.3604 20.518 3.80738 20.4326 3.31818 20.2404C2.27595 19.8133 1.5315 18.8523 1.38261 17.7419C1.3188 17.208 1.36134 16.6741 1.57404 16.0762C1.63785 15.8627 1.7442 15.6491 1.85055 15.3929C1.99944 15.0512 2.1696 14.6882 2.33976 14.3251L2.36103 14.2824C3.82865 11.1006 5.40263 7.85466 7.04042 4.69416L7.10423 4.56603C7.27439 4.24571 7.44455 3.90404 7.61471 3.58372C7.78487 3.24204 7.97629 2.92172 8.21026 2.64411C8.65693 2.1316 9.25249 1.85399 9.91186 1.85399C10.5712 1.85399 11.1668 2.1316 11.6135 2.64411C11.8474 2.92172 12.0389 3.24204 12.209 3.58372C12.3792 3.90404 12.5493 4.24571 12.7195 4.56603L12.7833 4.69416C14.3998 7.87601 15.9738 11.1219 17.4414 14.3038V14.3251C17.6116 14.6668 17.7605 15.0512 17.9306 15.3929C18.037 15.6491 18.1433 15.8627 18.2071 16.0762C18.3773 16.6314 18.4411 17.1653 18.356 17.7205Z" fill="#999999"/>
</g>
<defs>
<clipPath id="clip0_104_365">
<rect width="68.0851" height="21.3333" fill="white" transform="translate(0 0.44458)"/>
</clipPath>
</defs>
</svg>
