<svg width="72" height="22" viewBox="0 0 72 22" fill="none" xmlns="http://www.w3.org/2000/svg">
<g clip-path="url(#clip0_104_384)">
<path fill-rule="evenodd" clip-rule="evenodd" d="M44.4281 17.1278C40.3094 20.1601 34.3396 21.7779 29.1998 21.7779C21.9929 21.7779 15.5049 19.1154 10.5964 14.6873C10.2108 14.3391 10.5563 13.8645 11.0191 14.1357C16.3163 17.2141 22.866 19.0661 29.6317 19.0661C34.1946 19.0661 39.2142 18.1232 43.8295 16.1664C44.5268 15.8706 45.1099 16.6225 44.4281 17.1278" fill="#999999"/>
<path fill-rule="evenodd" clip-rule="evenodd" d="M46.1401 15.1711C45.6156 14.4994 42.66 14.8537 41.3334 15.0109C40.9293 15.0602 40.8676 14.7089 41.2316 14.4562C43.5856 12.8015 47.4482 13.2791 47.8986 13.8338C48.349 14.3915 47.7814 18.2588 45.5693 20.1046C45.23 20.3881 44.906 20.2371 45.0572 19.8612C45.5539 18.6224 46.6676 15.846 46.1401 15.1711" fill="#999999"/>
<path fill-rule="evenodd" clip-rule="evenodd" d="M41.4262 2.77422V1.16567C41.4262 0.922231 41.6113 0.758911 41.8334 0.758911H49.0434C49.2748 0.758911 49.4599 0.925313 49.4599 1.16567V2.54311C49.4568 2.77422 49.2624 3.07621 48.9169 3.55384L45.1808 8.88178C46.5691 8.84789 48.0346 9.05435 49.2933 9.76309C49.5771 9.92333 49.6543 10.1575 49.6758 10.3886V12.105C49.6758 12.3392 49.4167 12.6135 49.1452 12.4717C46.927 11.31 43.9807 11.1837 41.528 12.4841C41.2781 12.6197 41.0159 12.3485 41.0159 12.1143V10.4842C41.0159 10.2222 41.019 9.77542 41.2812 9.3779L45.6096 3.1779H41.8427C41.6113 3.1779 41.4262 3.01458 41.4262 2.77422" fill="#999999"/>
<path fill-rule="evenodd" clip-rule="evenodd" d="M15.1254 12.8106H12.9319C12.7221 12.7952 12.5555 12.6381 12.54 12.4378V1.19332C12.54 0.968374 12.7282 0.789645 12.9627 0.789645H15.0081C15.221 0.798884 15.3907 0.962209 15.4061 1.16559V2.63547H15.4462C15.98 1.21489 16.9826 0.552368 18.3339 0.552368C19.7068 0.552368 20.5645 1.21489 21.1815 2.63547C21.7122 1.21489 22.9184 0.552368 24.2111 0.552368C25.1305 0.552368 26.1362 0.931394 26.7502 1.78189C27.4443 2.72792 27.3024 4.10227 27.3024 5.30714L27.2993 12.4039C27.2993 12.6288 27.1112 12.8106 26.8767 12.8106H24.6862C24.4672 12.7952 24.2913 12.6196 24.2913 12.4039V6.44422C24.2913 5.96967 24.3345 4.78637 24.2296 4.33646C24.0661 3.5815 23.5756 3.36887 22.94 3.36887C22.4094 3.36887 21.8541 3.72324 21.6289 4.29024C21.4036 4.85724 21.4252 5.80634 21.4252 6.44422V12.4039C21.4252 12.6288 21.237 12.8106 21.0026 12.8106H18.8121C18.59 12.7952 18.4172 12.6196 18.4172 12.4039L18.4141 6.44422C18.4141 5.19004 18.6208 3.34422 17.0629 3.34422C15.4863 3.34422 15.5481 5.14382 15.5481 6.44422V12.4039C15.5481 12.6288 15.3599 12.8106 15.1254 12.8106" fill="#999999"/>
<path fill-rule="evenodd" clip-rule="evenodd" d="M55.6672 0.552368C58.922 0.552368 60.6836 3.34422 60.6836 6.89412C60.6836 10.3238 58.7369 13.0448 55.6672 13.0448C52.471 13.0448 50.731 10.253 50.731 6.77394C50.731 3.27334 52.4926 0.552368 55.6672 0.552368V0.552368ZM55.6857 2.8481C54.0691 2.8481 53.9673 5.04829 53.9673 6.41957C53.9673 7.79392 53.9457 10.7275 55.6672 10.7275C57.3671 10.7275 57.4473 8.36092 57.4473 6.91877C57.4473 5.96967 57.4072 4.83567 57.1203 3.93587C56.8735 3.15317 56.3829 2.8481 55.6857 2.8481" fill="#999999"/>
<path fill-rule="evenodd" clip-rule="evenodd" d="M64.904 12.8106H62.7198C62.5007 12.7952 62.3249 12.6196 62.3249 12.4039L62.3218 1.15634C62.3403 0.949883 62.5223 0.789645 62.7444 0.789645H64.7775C64.9688 0.798884 65.1262 0.928313 65.1694 1.10396V2.82344H65.2095C65.8234 1.28577 66.6842 0.552368 68.199 0.552368C69.1831 0.552368 70.1426 0.906743 70.7596 1.87742C71.3335 2.77722 71.3335 4.29024 71.3335 5.37801V12.4563C71.3088 12.6535 71.1268 12.8106 70.9108 12.8106H68.7111C68.5106 12.7952 68.344 12.6473 68.3224 12.4563V6.34869C68.3224 5.11917 68.4643 3.31957 66.9495 3.31957C66.4158 3.31957 65.9252 3.67702 65.6815 4.21937C65.373 4.90655 65.3329 5.59064 65.3329 6.34869V12.4039C65.3298 12.6288 65.1385 12.8106 64.904 12.8106" fill="#999999"/>
<path fill-rule="evenodd" clip-rule="evenodd" d="M35.6785 7.43962C35.6785 8.2932 35.7 9.00503 35.2681 9.76308C34.9195 10.3794 34.3642 10.7584 33.7502 10.7584C32.908 10.7584 32.4144 10.1175 32.4144 9.17143C32.4144 7.30403 34.0896 6.96506 35.6785 6.96506V7.43962V7.43962ZM37.8905 12.7799C37.7455 12.9093 37.5357 12.9185 37.3722 12.8323C36.6441 12.2283 36.5114 11.9479 36.1135 11.3716C34.9103 12.5981 34.0557 12.9648 32.4977 12.9648C30.6497 12.9648 29.2151 11.8277 29.2151 9.55046C29.2151 7.77242 30.1777 6.56139 31.5536 5.96974C32.7445 5.44588 34.4074 5.35343 35.6785 5.2086V4.9251C35.6785 4.40433 35.7186 3.78802 35.41 3.33812C35.1447 2.93444 34.6326 2.76804 34.1791 2.76804C33.343 2.76804 32.5995 3.19637 32.4175 4.08385C32.3804 4.28107 32.2354 4.4752 32.0349 4.48445L29.9092 4.25641C29.7303 4.21635 29.5298 4.07152 29.5822 3.79727C30.0697 1.22112 32.402 0.44458 34.4876 0.44458C35.555 0.44458 36.9495 0.72808 37.7918 1.53544C38.8592 2.53076 38.7574 3.8589 38.7574 5.30413V8.71845C38.7574 9.74459 39.1832 10.1945 39.5842 10.7492C39.7231 10.9464 39.7539 11.1837 39.575 11.3316C39.1276 11.7044 38.3317 12.3978 37.8936 12.786L37.8905 12.7799" fill="#999999"/>
<path fill-rule="evenodd" clip-rule="evenodd" d="M6.92186 7.43962C6.92186 8.2932 6.94345 9.00503 6.51154 9.76308C6.16291 10.3794 5.61067 10.7584 4.99365 10.7584C4.1514 10.7584 3.66087 10.1175 3.66087 9.17143C3.66087 7.30403 5.3361 6.96506 6.92186 6.96506V7.43962V7.43962ZM9.1339 12.7799C8.9889 12.9093 8.77911 12.9185 8.6156 12.8323C7.88751 12.2283 7.75793 11.9479 7.35686 11.3716C6.15366 12.5981 5.30216 12.9648 3.74108 12.9648C1.89617 12.9648 0.458496 11.8277 0.458496 9.55046C0.458496 7.77242 1.42414 6.56139 2.79703 5.96974C3.98789 5.44588 5.65078 5.35343 6.92186 5.2086V4.9251C6.92186 4.40433 6.96197 3.78802 6.65654 3.33812C6.38813 2.93444 5.876 2.76804 5.42557 2.76804C4.5895 2.76804 3.84289 3.19637 3.66087 4.08385C3.62385 4.28107 3.47884 4.4752 3.2814 4.48445L1.15265 4.25641C0.973714 4.21635 0.776265 4.07152 0.825627 3.79727C1.31616 1.22112 3.64544 0.44458 5.731 0.44458C6.79845 0.44458 8.19293 0.72808 9.03518 1.53544C10.1026 2.53076 10.0008 3.8589 10.0008 5.30413V8.71845C10.0008 9.74459 10.4266 10.1945 10.8276 10.7492C10.9696 10.9464 11.0004 11.1837 10.8215 11.3316C10.3741 11.7044 9.57816 12.3978 9.14007 12.786L9.1339 12.7799" fill="#999999"/>
</g>
<defs>
<clipPath id="clip0_104_384">
<rect width="70.8749" height="21.3333" fill="white" transform="translate(0.458496 0.44458)"/>
</clipPath>
</defs>
</svg>
