<svg width="201" height="251" viewBox="0 0 201 251" fill="none" xmlns="http://www.w3.org/2000/svg">
<g clip-path="url(#clip0_30_307)">
<path d="M193.763 0.111084H6.68148C2.9914 0.111084 0 3.10381 0 6.79553V244.093C0 247.785 2.9914 250.778 6.68148 250.778H193.763C197.453 250.778 200.444 247.785 200.444 244.093V6.79553C200.444 3.10381 197.453 0.111084 193.763 0.111084Z" fill="#B8C5D0"/>
<path fill-rule="evenodd" clip-rule="evenodd" d="M13.3629 26.8489H187.081C190.771 26.8489 193.763 29.8417 193.763 33.5334V237.409C193.763 241.1 190.771 244.093 187.081 244.093H13.3629C9.6728 244.093 6.6814 241.1 6.6814 237.409V33.5334C6.6814 29.8417 9.6728 26.8489 13.3629 26.8489ZM10.0221 10.1378C11.8672 10.1378 13.3629 11.6342 13.3629 13.48C13.3629 15.3259 11.8672 16.8223 10.0221 16.8223C8.1771 16.8223 6.6814 15.3259 6.6814 13.48C6.6814 11.6342 8.1771 10.1378 10.0221 10.1378ZM20.0444 10.1378C21.8894 10.1378 23.3851 11.6342 23.3851 13.48C23.3851 15.3259 21.8894 16.8223 20.0444 16.8223C18.1993 16.8223 16.7036 15.3259 16.7036 13.48C16.7036 11.6342 18.1993 10.1378 20.0444 10.1378ZM30.0666 10.1378C31.9117 10.1378 33.4073 11.6342 33.4073 13.48C33.4073 15.3259 31.9117 16.8223 30.0666 16.8223C28.2215 16.8223 26.7258 15.3259 26.7258 13.48C26.7258 11.6342 28.2215 10.1378 30.0666 10.1378Z" fill="white"/>
<path d="M61.8037 46.9022H16.7037C13.0136 46.9022 10.0222 49.8949 10.0222 53.5867V97.0356C10.0222 100.727 13.0136 103.72 16.7037 103.72H61.8037C65.4938 103.72 68.4852 100.727 68.4852 97.0356V53.5867C68.4852 49.8949 65.4938 46.9022 61.8037 46.9022Z" fill="#B8C5D0"/>
<path fill-rule="evenodd" clip-rule="evenodd" d="M40.0888 93.3425C47.4685 93.3425 53.4518 96.7181 53.4518 100.879C53.4518 105.04 47.4685 103.386 40.0888 103.386C32.7091 103.386 26.7258 105.04 26.7258 100.879C26.7258 96.7181 32.7091 93.3425 40.0888 93.3425ZM40.0888 68.6267C46.1955 68.7086 51.0873 73.7133 51.0326 79.8228C50.9779 85.9326 45.9972 90.8488 39.8902 90.8213C33.783 90.7937 28.8469 85.8328 28.8472 79.7229C28.8666 76.7599 30.0621 73.926 32.1704 71.845C34.2787 69.7639 37.1271 68.6062 40.0888 68.6267Z" fill="#1D242B"/>
<path d="M130.289 50.2445H80.1777C79.2552 50.2445 78.5073 50.9927 78.5073 51.9156V53.5867C78.5073 54.5097 79.2552 55.2578 80.1777 55.2578H130.289C131.211 55.2578 131.959 54.5097 131.959 53.5867V51.9156C131.959 50.9927 131.211 50.2445 130.289 50.2445Z" fill="#1D242B"/>
<path d="M146.993 65.2844H80.1777C79.2552 65.2844 78.5073 66.0326 78.5073 66.9555V68.6266C78.5073 69.5496 79.2552 70.2978 80.1777 70.2978H146.993C147.915 70.2978 148.663 69.5496 148.663 68.6266V66.9555C148.663 66.0326 147.915 65.2844 146.993 65.2844Z" fill="#B8C5D0"/>
<path d="M180.4 75.311H80.1777C79.2552 75.311 78.5073 76.0592 78.5073 76.9821V78.6533C78.5073 79.5762 79.2552 80.3244 80.1777 80.3244H180.4C181.322 80.3244 182.07 79.5762 182.07 78.6533V76.9821C182.07 76.0592 181.322 75.311 180.4 75.311Z" fill="#B8C5D0"/>
<path d="M182.07 85.3378H80.1777C79.2552 85.3378 78.5073 86.086 78.5073 87.0089V88.68C78.5073 89.6029 79.2552 90.3511 80.1777 90.3511H182.07C182.993 90.3511 183.741 89.6029 183.741 88.68V87.0089C183.741 86.086 182.993 85.3378 182.07 85.3378Z" fill="#B8C5D0"/>
<path d="M153.674 95.3645H80.1777C79.2552 95.3645 78.5073 96.1127 78.5073 97.0356V98.7067C78.5073 99.6297 79.2552 100.378 80.1777 100.378H153.674C154.597 100.378 155.344 99.6297 155.344 98.7067V97.0356C155.344 96.1127 154.597 95.3645 153.674 95.3645Z" fill="#B8C5D0"/>
<path d="M61.8037 107.062H16.7037C13.0136 107.062 10.0222 110.055 10.0222 113.747V157.195C10.0222 160.887 13.0136 163.88 16.7037 163.88H61.8037C65.4938 163.88 68.4852 160.887 68.4852 157.195V113.747C68.4852 110.055 65.4938 107.062 61.8037 107.062Z" fill="#B8C5D0"/>
<path fill-rule="evenodd" clip-rule="evenodd" d="M40.0888 153.502C47.4685 153.502 53.4518 156.878 53.4518 161.039C53.4518 165.2 47.4685 163.546 40.0888 163.546C32.7091 163.546 26.7258 165.2 26.7258 161.039C26.7258 156.878 32.7091 153.502 40.0888 153.502ZM40.0888 128.787C46.1955 128.869 51.0873 133.873 51.0326 139.983C50.9779 146.093 45.9972 151.009 39.8902 150.981C33.783 150.954 28.8469 145.993 28.8472 139.883C28.8666 136.92 30.0621 134.086 32.1704 132.005C34.2787 129.924 37.1271 128.766 40.0888 128.787Z" fill="#1D242B"/>
<path d="M146.993 110.404H80.1777C79.2552 110.404 78.5073 111.153 78.5073 112.076V113.747C78.5073 114.67 79.2552 115.418 80.1777 115.418H146.993C147.915 115.418 148.663 114.67 148.663 113.747V112.076C148.663 111.153 147.915 110.404 146.993 110.404Z" fill="#1D242B"/>
<path d="M182.07 125.444H80.1777C79.2552 125.444 78.5073 126.193 78.5073 127.116V128.787C78.5073 129.71 79.2552 130.458 80.1777 130.458H182.07C182.993 130.458 183.741 129.71 183.741 128.787V127.116C183.741 126.193 182.993 125.444 182.07 125.444Z" fill="#B8C5D0"/>
<path d="M177.059 135.471H80.1777C79.2552 135.471 78.5073 136.219 78.5073 137.142V138.813C78.5073 139.736 79.2552 140.485 80.1777 140.485H177.059C177.982 140.485 178.73 139.736 178.73 138.813V137.142C178.73 136.219 177.982 135.471 177.059 135.471Z" fill="#B8C5D0"/>
<path d="M173.718 145.498H80.1777C79.2552 145.498 78.5073 146.246 78.5073 147.169V148.84C78.5073 149.763 79.2552 150.511 80.1777 150.511H173.718C174.641 150.511 175.389 149.763 175.389 148.84V147.169C175.389 146.246 174.641 145.498 173.718 145.498Z" fill="#B8C5D0"/>
<path d="M153.674 155.524H80.1777C79.2552 155.524 78.5073 156.273 78.5073 157.196V158.867C78.5073 159.79 79.2552 160.538 80.1777 160.538H153.674C154.597 160.538 155.344 159.79 155.344 158.867V157.196C155.344 156.273 154.597 155.524 153.674 155.524Z" fill="#B8C5D0"/>
<path d="M61.8037 167.222H16.7037C13.0136 167.222 10.0222 170.215 10.0222 173.907V217.355C10.0222 221.047 13.0136 224.04 16.7037 224.04H61.8037C65.4938 224.04 68.4852 221.047 68.4852 217.355V173.907C68.4852 170.215 65.4938 167.222 61.8037 167.222Z" fill="#B8C5D0"/>
<path fill-rule="evenodd" clip-rule="evenodd" d="M40.0888 213.662C47.4685 213.662 53.4518 217.038 53.4518 221.199C53.4518 225.36 47.4685 223.706 40.0888 223.706C32.7091 223.706 26.7258 225.36 26.7258 221.199C26.7258 217.038 32.7091 213.662 40.0888 213.662ZM40.0888 188.947C46.1955 189.029 51.0873 194.034 51.0326 200.143C50.9779 206.253 45.9972 211.169 39.8902 211.141C33.783 211.114 28.8469 206.152 28.8472 200.043C28.8666 197.08 30.0621 194.246 32.1704 192.165C34.2787 190.085 37.1271 188.927 40.0888 188.947Z" fill="#1D242B"/>
<path d="M163.696 170.564H80.1777C79.2552 170.564 78.5073 171.313 78.5073 172.236V173.907C78.5073 174.83 79.2552 175.578 80.1777 175.578H163.696C164.619 175.578 165.367 174.83 165.367 173.907V172.236C165.367 171.313 164.619 170.564 163.696 170.564Z" fill="#1D242B"/>
<path d="M130.289 185.604H80.1777C79.2552 185.604 78.5073 186.353 78.5073 187.276V188.947C78.5073 189.87 79.2552 190.618 80.1777 190.618H130.289C131.211 190.618 131.959 189.87 131.959 188.947V187.276C131.959 186.353 131.211 185.604 130.289 185.604Z" fill="#B8C5D0"/>
<path d="M168.707 195.631H80.1777C79.2552 195.631 78.5073 196.379 78.5073 197.302V198.973C78.5073 199.896 79.2552 200.644 80.1777 200.644H168.707C169.63 200.644 170.378 199.896 170.378 198.973V197.302C170.378 196.379 169.63 195.631 168.707 195.631Z" fill="#B8C5D0"/>
<path d="M175.389 205.658H80.1777C79.2552 205.658 78.5073 206.406 78.5073 207.329V209C78.5073 209.923 79.2552 210.671 80.1777 210.671H175.389C176.311 210.671 177.059 209.923 177.059 209V207.329C177.059 206.406 176.311 205.658 175.389 205.658Z" fill="#B8C5D0"/>
<path d="M145.322 215.684H80.1777C79.2552 215.684 78.5073 216.433 78.5073 217.356V219.027C78.5073 219.95 79.2552 220.698 80.1777 220.698H145.322C146.245 220.698 146.992 219.95 146.992 219.027V217.356C146.992 216.433 146.245 215.684 145.322 215.684Z" fill="#B8C5D0"/>
</g>
<defs>
<clipPath id="clip0_30_307">
<rect width="200.444" height="250.667" fill="white" transform="translate(0 0.111084)"/>
</clipPath>
</defs>
</svg>
