<svg width="49" height="48" viewBox="0 0 49 48" fill="none" xmlns="http://www.w3.org/2000/svg">
<rect x="0.777832" width="48" height="48" rx="24" fill="#C7EEFF"/>
<path d="M25.1177 15.75L18.0513 18.75V23.25C18.0513 27.4125 21.0663 31.305 25.1177 32.25C29.1691 31.305 32.1841 27.4125 32.1841 23.25V18.75L25.1177 15.75ZM30.6138 23.25C30.6138 26.64 28.274 29.7675 25.1177 30.6975C21.9613 29.7675 19.6216 26.64 19.6216 23.25V19.725L25.1177 17.3925L30.6138 19.725V23.25ZM21.5138 23.6925L20.4067 24.75L23.5474 27.75L29.8286 21.75L28.7215 20.685L23.5474 25.6275L21.5138 23.6925Z" fill="black"/>
</svg>
