<svg width="66" height="22" viewBox="0 0 66 22" fill="none" xmlns="http://www.w3.org/2000/svg">
<g clip-path="url(#clip0_104_367)">
<path d="M63.7859 13.4823L65.5895 14.6847C65.0041 15.5469 63.604 17.0262 61.1834 17.0262C58.1774 17.0262 55.9387 14.7005 55.9387 11.742C55.9387 8.5936 58.2011 6.45776 60.9302 6.45776C63.6752 6.45776 65.02 8.64106 65.455 9.81972L65.6924 10.4209L58.6204 13.3478C59.1583 14.4078 59.9968 14.9457 61.1834 14.9457C62.37 14.9457 63.1926 14.3603 63.7859 13.4823ZM58.2407 11.5759L62.9632 9.61405C62.7022 8.95748 61.927 8.49076 61.0014 8.49076C59.8228 8.49076 58.1853 9.53494 58.2407 11.5759Z" fill="#999999"/>
<path d="M52.5293 1.07068H54.8075V16.5436H52.5293V1.07068Z" fill="#999999"/>
<path d="M48.938 6.86908H51.1372V16.2667C51.1372 20.1666 48.8352 21.7724 46.114 21.7724C43.551 21.7724 42.0084 20.048 41.431 18.6478L43.4482 17.8093C43.812 18.6715 44.6901 19.692 46.114 19.692C47.8622 19.692 48.938 18.6083 48.938 16.5832V15.8238H48.8589C48.3368 16.4566 47.3401 17.0262 46.0744 17.0262C43.4323 17.0262 41.0117 14.7242 41.0117 11.7578C41.0117 8.77551 43.4323 6.44983 46.0744 6.44983C47.3322 6.44983 48.3368 7.01147 48.8589 7.62849H48.938V6.86908ZM49.0962 11.7578C49.0962 9.89089 47.8543 8.53029 46.2722 8.53029C44.6743 8.53029 43.3295 9.89089 43.3295 11.7578C43.3295 13.6009 44.6743 14.9378 46.2722 14.9378C47.8543 14.9457 49.0962 13.6009 49.0962 11.7578Z" fill="#999999"/>
<path d="M28.5052 11.7183C28.5052 14.7638 26.132 17.0025 23.221 17.0025C20.3099 17.0025 17.9368 14.7559 17.9368 11.7183C17.9368 8.65691 20.3099 6.42615 23.221 6.42615C26.132 6.42615 28.5052 8.65691 28.5052 11.7183ZM26.1953 11.7183C26.1953 9.81975 24.8189 8.51452 23.221 8.51452C21.6231 8.51452 20.2466 9.81975 20.2466 11.7183C20.2466 13.601 21.6231 14.922 23.221 14.922C24.8189 14.922 26.1953 13.601 26.1953 11.7183Z" fill="#999999"/>
<path d="M40.0467 11.742C40.0467 14.7875 37.6735 17.0262 34.7625 17.0262C31.8514 17.0262 29.4783 14.7875 29.4783 11.742C29.4783 8.68061 31.8514 6.45776 34.7625 6.45776C37.6735 6.45776 40.0467 8.6727 40.0467 11.742ZM37.7289 11.742C37.7289 9.84345 36.3525 8.53822 34.7546 8.53822C33.1566 8.53822 31.7802 9.84345 31.7802 11.742C31.7802 13.6247 33.1566 14.9457 34.7546 14.9457C36.3604 14.9457 37.7289 13.6168 37.7289 11.742Z" fill="#999999"/>
<path d="M9.25104 14.7084C5.93654 14.7084 3.3419 12.0346 3.3419 8.72015C3.3419 5.40565 5.93654 2.73191 9.25104 2.73191C11.0388 2.73191 12.344 3.43594 13.3091 4.33774L14.8991 2.74773C13.5543 1.45832 11.7587 0.477417 9.25104 0.477417C4.71041 0.477417 0.889648 4.17953 0.889648 8.72015C0.889648 13.2608 4.71041 16.9629 9.25104 16.9629C11.7033 16.9629 13.5543 16.156 15.002 14.653C16.4891 13.1658 16.9479 11.0775 16.9479 9.38463C16.9479 8.85463 16.8847 8.3088 16.8135 7.90537H9.25104V10.1045H14.6381C14.4799 11.4809 14.0448 12.4223 13.404 13.063C12.6288 13.8461 11.4027 14.7084 9.25104 14.7084Z" fill="#999999"/>
</g>
<defs>
<clipPath id="clip0_104_367">
<rect width="65.0159" height="21.3333" fill="white" transform="translate(0.795166 0.44458)"/>
</clipPath>
</defs>
</svg>
