<svg width="49" height="48" viewBox="0 0 49 48" fill="none" xmlns="http://www.w3.org/2000/svg">
<rect x="0.888916" width="48" height="48" rx="24" fill="#C7EEFF"/>
<path d="M18.1624 28.5V24C18.1624 22.2098 18.9068 20.4929 20.2321 19.227C21.5573 17.9612 23.3546 17.25 25.2288 17.25C27.1029 17.25 28.9003 17.9612 30.2255 19.227C31.5507 20.4929 32.2952 22.2098 32.2952 24V28.5" stroke="black" stroke-width="1.33333" stroke-linecap="round" stroke-linejoin="round"/>
<path d="M32.2952 29.25C32.2952 29.6478 32.1297 30.0294 31.8352 30.3107C31.5407 30.592 31.1413 30.75 30.7249 30.75H29.9397C29.5232 30.75 29.1238 30.592 28.8293 30.3107C28.5348 30.0294 28.3694 29.6478 28.3694 29.25V27C28.3694 26.6022 28.5348 26.2206 28.8293 25.9393C29.1238 25.658 29.5232 25.5 29.9397 25.5H32.2952V29.25ZM18.1624 29.25C18.1624 29.6478 18.3278 30.0294 18.6223 30.3107C18.9168 30.592 19.3162 30.75 19.7327 30.75H20.5178C20.9343 30.75 21.3337 30.592 21.6282 30.3107C21.9227 30.0294 22.0881 29.6478 22.0881 29.25V27C22.0881 26.6022 21.9227 26.2206 21.6282 25.9393C21.3337 25.658 20.9343 25.5 20.5178 25.5H18.1624V29.25Z" stroke="black" stroke-width="1.33333" stroke-linecap="round" stroke-linejoin="round"/>
</svg>
