<svg width="68" height="14" viewBox="0 0 68 14" fill="none" xmlns="http://www.w3.org/2000/svg">
<path d="M1.55022 9.14656L3.90001 11.4964C3.90146 11.4978 3.90302 11.4991 3.90447 11.5006C3.90593 11.502 3.90766 11.504 3.90933 11.5057C4.59504 12.1913 5.49904 12.6155 6.46463 12.7047C7.43022 12.7939 8.39654 12.5425 9.19628 11.994C9.99602 12.5425 10.9623 12.7939 11.9279 12.7047C12.8935 12.6155 13.7975 12.1913 14.4832 11.5057L16.833 9.15594C17.5651 8.42365 17.9973 7.44432 18.0449 6.40994C18.0925 5.37555 17.7521 4.36065 17.0903 3.5642C16.4285 2.76781 15.4931 2.24724 14.4675 2.10461C13.4419 1.96199 12.4 2.20753 11.546 2.79317C10.8546 2.319 10.0358 2.06513 9.19745 2.06485C8.35901 2.06463 7.54018 2.31805 6.84844 2.79183C5.99549 2.20256 4.953 1.95361 3.92581 2.09378C2.89862 2.234 1.961 2.75318 1.29708 3.54946C0.633208 4.34573 0.29111 5.36147 0.337907 6.3971C0.38476 7.43277 0.817156 8.41347 1.55022 9.14656ZM12.822 3.96985C13.3524 3.71649 13.9554 3.65886 14.5243 3.80707C15.0931 3.95522 15.5913 4.29978 15.9307 4.77975C16.2701 5.25973 16.4289 5.84419 16.3791 6.42993C16.3292 7.01568 16.0739 7.56495 15.6583 7.98066L13.3086 10.3304C12.9438 10.6947 12.4753 10.9371 11.9673 11.0244C11.4593 11.1116 10.9367 11.0395 10.4714 10.8179L12.1335 9.15594C12.7709 8.52184 13.1835 7.69674 13.3086 6.80638C13.3361 6.6117 13.35 6.41536 13.3501 6.21873C13.3518 5.44144 13.1338 4.67951 12.7213 4.02067C12.7546 4.00291 12.7881 3.98604 12.822 3.97002L12.822 3.96985ZM7.43396 4.45625C7.90188 3.99141 8.53498 3.73106 9.19455 3.73212C9.85412 3.73324 10.4863 3.99576 10.9527 4.46211C11.4191 4.92852 11.6816 5.56073 11.6827 6.2203C11.6838 6.87987 11.4234 7.51294 10.9586 7.98088L9.19628 9.7432L7.43396 7.98088C6.96739 7.51313 6.70537 6.87942 6.70537 6.21873C6.70537 5.5581 6.96739 4.92439 7.43396 4.45664L7.43396 4.45625ZM2.72511 4.44692C3.09156 4.08142 3.56254 3.8389 4.0729 3.75284C4.58326 3.66679 5.10774 3.7415 5.57375 3.96667C5.60726 3.98281 5.64043 3.99973 5.67321 4.01743C5.25947 4.677 5.04078 5.44016 5.04246 6.21873C5.04263 6.41536 5.05648 6.6117 5.08401 6.80637C5.20898 7.69674 5.62167 8.52184 6.25907 9.15594L7.91104 10.8079L7.92036 10.8172C7.45524 11.0387 6.93293 11.1109 6.42515 11.0238C5.91736 10.9367 5.449 10.6947 5.08423 10.3308C5.08255 10.3292 5.08099 10.3274 5.07937 10.3257C5.07775 10.324 5.07635 10.3229 5.0749 10.3215L2.73611 7.98267L2.72494 7.9715C2.25759 7.50409 1.99501 6.87015 1.99501 6.20918C1.99501 5.54822 2.25759 4.91428 2.72495 4.44687L2.72511 4.44692Z" fill="white"/>
<path d="M23.818 10.8889H25.3545L26.7399 5.85246H26.7712L28.1514 10.8889H29.6878L31.6826 3.37329H30.0524L28.8597 8.75871H28.8285L27.443 3.37329H26.0628L24.6774 8.75871H24.6462L23.4587 3.37329H21.8285L23.818 10.8889ZM33.3545 10.9775C34.0889 10.9775 34.6826 10.6285 35.0003 10.0556H35.0316V10.8889H36.5524V7.06079C36.5524 5.93579 35.6201 5.191 34.1774 5.191C32.7035 5.191 31.818 5.93058 31.7347 6.96183L31.7295 7.02433H33.1201L33.1305 6.97746C33.2035 6.61808 33.5472 6.35246 34.1149 6.35246C34.7087 6.35246 35.0316 6.65975 35.0316 7.15454V7.49829L33.6514 7.58162C32.266 7.67017 31.4795 8.26392 31.4795 9.27954V9.28996C31.4795 10.2743 32.2347 10.9775 33.3545 10.9775ZM32.9847 9.21183V9.20142C32.9847 8.80558 33.292 8.55558 33.8805 8.51912L35.0316 8.44621V8.84725C35.0316 9.43058 34.5316 9.86808 33.8493 9.86808C33.3232 9.86808 32.9847 9.62329 32.9847 9.21183ZM37.5889 10.8889H39.1097V9.03996L39.5003 8.60767L41.0993 10.8889H42.8545L40.641 7.70662L42.7503 5.30558H41.0264L39.141 7.53996H39.1097V3.37329H37.5889V10.8889ZM44.9066 10.9775C45.641 10.9775 46.2347 10.6285 46.5524 10.0556H46.5837V10.8889H48.1045V7.06079C48.1045 5.93579 47.1722 5.191 45.7295 5.191C44.2555 5.191 43.3701 5.93058 43.2868 6.96183L43.2816 7.02433H44.6722L44.6826 6.97746C44.7555 6.61808 45.0993 6.35246 45.667 6.35246C46.2607 6.35246 46.5837 6.65975 46.5837 7.15454V7.49829L45.2035 7.58162C43.818 7.67017 43.0316 8.26392 43.0316 9.27954V9.28996C43.0316 10.2743 43.7868 10.9775 44.9066 10.9775ZM44.5368 9.21183V9.20142C44.5368 8.80558 44.8441 8.55558 45.4326 8.51912L46.5837 8.44621V8.84725C46.5837 9.43058 46.0837 9.86808 45.4014 9.86808C44.8753 9.86808 44.5368 9.62329 44.5368 9.21183ZM49.0889 10.8889H50.6097V7.68058C50.6097 6.95142 51.042 6.45142 51.7243 6.45142C52.4066 6.45142 52.7503 6.86808 52.7503 7.59725V10.8889H54.2712V7.28475C54.2712 5.97746 53.5732 5.191 52.3441 5.191C51.5003 5.191 50.9274 5.58162 50.641 6.22225H50.6097V5.30558H49.0889V10.8889ZM57.3024 11.0035C58.1097 11.0035 58.7243 10.5972 59.0212 9.93579H59.0524V10.8889H60.5732V3.37329H59.0524V6.27433H59.0212C58.7191 5.59725 58.0941 5.191 57.3024 5.191C55.8962 5.191 55.0316 6.27433 55.0316 8.09204V8.09725C55.0316 9.90975 55.8962 11.0035 57.3024 11.0035ZM57.8128 9.74308C57.0524 9.74308 56.5785 9.11287 56.5785 8.09725V8.09204C56.5785 7.07121 57.0576 6.45142 57.8128 6.45142C58.5472 6.45142 59.0576 7.08683 59.0576 8.09204V8.09725C59.0576 9.10767 58.5524 9.74308 57.8128 9.74308ZM63.2503 10.9775C63.9847 10.9775 64.5785 10.6285 64.8962 10.0556H64.9274V10.8889H66.4482V7.06079C66.4482 5.93579 65.516 5.191 64.0732 5.191C62.5993 5.191 61.7139 5.93058 61.6305 6.96183L61.6253 7.02433H63.016L63.0264 6.97746C63.0993 6.61808 63.443 6.35246 64.0107 6.35246C64.6045 6.35246 64.9274 6.65975 64.9274 7.15454V7.49829L63.5472 7.58162C62.1618 7.67017 61.3753 8.26392 61.3753 9.27954V9.28996C61.3753 10.2743 62.1305 10.9775 63.2503 10.9775ZM62.8805 9.21183V9.20142C62.8805 8.80558 63.1878 8.55558 63.7764 8.51912L64.9274 8.44621V8.84725C64.9274 9.43058 64.4274 9.86808 63.7451 9.86808C63.2191 9.86808 62.8805 9.62329 62.8805 9.21183Z" fill="#F7F8F8"/>
</svg>
