<svg width="68" height="14" viewBox="0 0 68 14" fill="none" xmlns="http://www.w3.org/2000/svg">
<path d="M1.21648 8.64644L3.56627 10.9962C3.56772 10.9977 3.56928 10.999 3.57073 11.0005C3.57219 11.0019 3.57392 11.0039 3.57559 11.0056C4.2613 11.6912 5.1653 12.1154 6.13089 12.2046C7.09648 12.2937 8.0628 12.0423 8.86254 11.4939C9.66228 12.0423 10.6286 12.2937 11.5942 12.2046C12.5598 12.1154 13.4638 11.6912 14.1495 11.0056L16.4993 8.65582C17.2314 7.92353 17.6636 6.9442 17.7112 5.90982C17.7588 4.87543 17.4183 3.86052 16.7565 3.06408C16.0948 2.26769 15.1594 1.74712 14.1338 1.60449C13.1082 1.46187 12.0662 1.70741 11.2123 2.29305C10.5208 1.81888 9.70209 1.56501 8.86371 1.56473C8.02527 1.56451 7.20644 1.81793 6.5147 2.2917C5.66175 1.70244 4.61926 1.45349 3.59207 1.59366C2.56488 1.73388 1.62726 2.25306 0.963338 3.04934C0.299468 3.84561 -0.0426302 4.86135 0.0041667 5.89697C0.0510195 6.93265 0.483416 7.91335 1.21648 8.64644ZM12.4882 3.46973C13.0187 3.21637 13.6216 3.15873 14.1905 3.30694C14.7594 3.4551 15.2575 3.79965 15.597 4.27963C15.9364 4.75961 16.0952 5.34407 16.0453 5.92981C15.9955 6.51556 15.7402 7.06482 15.3245 7.48053L12.9748 9.83033C12.6101 10.1946 12.1416 10.437 11.6336 10.5242C11.1255 10.6115 10.603 10.5394 10.1376 10.3178L11.7997 8.65582C12.4372 8.02172 12.8498 7.19662 12.9748 6.30625C13.0023 6.11158 13.0162 5.91524 13.0164 5.71861C13.018 4.94132 12.8 4.17939 12.3876 3.52055C12.4208 3.50279 12.4544 3.48592 12.4882 3.4699L12.4882 3.46973ZM7.10022 3.95613C7.56814 3.49128 8.20124 3.23094 8.86081 3.232C9.52038 3.23312 10.1526 3.49564 10.619 3.96199C11.0853 4.4284 11.3479 5.0606 11.349 5.72017C11.35 6.37974 11.0897 7.01282 10.6249 7.48076L8.86254 9.24307L7.10022 7.48076C6.63365 7.01301 6.37163 6.3793 6.37163 5.71861C6.37163 5.05798 6.63365 4.42426 7.10022 3.95652L7.10022 3.95613ZM2.39137 3.9468C2.75782 3.5813 3.2288 3.33877 3.73916 3.25272C4.24952 3.16666 4.774 3.24138 5.24001 3.46654C5.27352 3.48268 5.30669 3.4996 5.33947 3.51731C4.92573 4.17688 4.70704 4.94004 4.70872 5.71861C4.70889 5.91523 4.72273 6.11158 4.75027 6.30625C4.87524 7.19662 5.28793 8.02172 5.92533 8.65582L7.5773 10.3077L7.58662 10.3171C7.1215 10.5386 6.59919 10.6107 6.09141 10.5237C5.58362 10.4366 5.11526 10.1945 4.75049 9.83072C4.74881 9.82904 4.74725 9.82725 4.74563 9.82558C4.74401 9.8239 4.74261 9.82279 4.74116 9.82133L2.40237 7.48254L2.3912 7.47138C1.92385 7.00396 1.66127 6.37003 1.66127 5.70906C1.66127 5.04809 1.92385 4.41416 2.39121 3.94674L2.39137 3.9468Z" fill="#0077C0"/>
<path d="M23.4848 10.3889H25.0212L26.4067 5.35246H26.4379L27.8181 10.3889H29.3546L31.3494 2.87329H29.7192L28.5264 8.25871H28.4952L27.1098 2.87329H25.7296L24.3442 8.25871H24.3129L23.1254 2.87329H21.4952L23.4848 10.3889ZM33.0212 10.4775C33.7556 10.4775 34.3494 10.1285 34.6671 9.55558H34.6983V10.3889H36.2192V6.56079C36.2192 5.43579 35.2869 4.691 33.8442 4.691C32.3702 4.691 31.4848 5.43058 31.4014 6.46183L31.3962 6.52433H32.7869L32.7973 6.47746C32.8702 6.11808 33.2139 5.85246 33.7817 5.85246C34.3754 5.85246 34.6983 6.15975 34.6983 6.65454V6.99829L33.3181 7.08162C31.9327 7.17017 31.1462 7.76392 31.1462 8.77954V8.78996C31.1462 9.77433 31.9014 10.4775 33.0212 10.4775ZM32.6514 8.71183V8.70142C32.6514 8.30558 32.9587 8.05558 33.5473 8.01912L34.6983 7.94621V8.34725C34.6983 8.93058 34.1983 9.36808 33.516 9.36808C32.99 9.36808 32.6514 9.12329 32.6514 8.71183ZM37.2556 10.3889H38.7764V8.53996L39.1671 8.10767L40.766 10.3889H42.5212L40.3077 7.20662L42.4171 4.80558H40.6931L38.8077 7.03996H38.7764V2.87329H37.2556V10.3889ZM44.5733 10.4775C45.3077 10.4775 45.9014 10.1285 46.2192 9.55558H46.2504V10.3889H47.7712V6.56079C47.7712 5.43579 46.8389 4.691 45.3962 4.691C43.9223 4.691 43.0369 5.43058 42.9535 6.46183L42.9483 6.52433H44.3389L44.3494 6.47746C44.4223 6.11808 44.766 5.85246 45.3337 5.85246C45.9275 5.85246 46.2504 6.15975 46.2504 6.65454V6.99829L44.8702 7.08162C43.4848 7.17017 42.6983 7.76392 42.6983 8.77954V8.78996C42.6983 9.77433 43.4535 10.4775 44.5733 10.4775ZM44.2035 8.71183V8.70142C44.2035 8.30558 44.5108 8.05558 45.0994 8.01912L46.2504 7.94621V8.34725C46.2504 8.93058 45.7504 9.36808 45.0681 9.36808C44.5421 9.36808 44.2035 9.12329 44.2035 8.71183ZM48.7556 10.3889H50.2764V7.18058C50.2764 6.45142 50.7087 5.95142 51.391 5.95142C52.0733 5.95142 52.4171 6.36808 52.4171 7.09725V10.3889H53.9379V6.78475C53.9379 5.47746 53.24 4.691 52.0108 4.691C51.1671 4.691 50.5942 5.08162 50.3077 5.72225H50.2764V4.80558H48.7556V10.3889ZM56.9692 10.5035C57.7764 10.5035 58.391 10.0972 58.6879 9.43579H58.7192V10.3889H60.24V2.87329H58.7192V5.77433H58.6879C58.3858 5.09725 57.7608 4.691 56.9692 4.691C55.5629 4.691 54.6983 5.77433 54.6983 7.59204V7.59725C54.6983 9.40975 55.5629 10.5035 56.9692 10.5035ZM57.4796 9.24308C56.7192 9.24308 56.2452 8.61287 56.2452 7.59725V7.59204C56.2452 6.57121 56.7244 5.95142 57.4796 5.95142C58.2139 5.95142 58.7244 6.58683 58.7244 7.59204V7.59725C58.7244 8.60767 58.2192 9.24308 57.4796 9.24308ZM62.9171 10.4775C63.6515 10.4775 64.2452 10.1285 64.5629 9.55558H64.5942V10.3889H66.115V6.56079C66.115 5.43579 65.1827 4.691 63.74 4.691C62.266 4.691 61.3806 5.43058 61.2973 6.46183L61.2921 6.52433H62.6827L62.6931 6.47746C62.766 6.11808 63.1098 5.85246 63.6775 5.85246C64.2712 5.85246 64.5942 6.15975 64.5942 6.65454V6.99829L63.214 7.08162C61.8285 7.17017 61.0421 7.76392 61.0421 8.77954V8.78996C61.0421 9.77433 61.7973 10.4775 62.9171 10.4775ZM62.5473 8.71183V8.70142C62.5473 8.30558 62.8546 8.05558 63.4431 8.01912L64.5942 7.94621V8.34725C64.5942 8.93058 64.0942 9.36808 63.4119 9.36808C62.8858 9.36808 62.5473 9.12329 62.5473 8.71183Z" fill="black"/>
</svg>
