<svg width="80" height="22" viewBox="0 0 80 22" fill="none" xmlns="http://www.w3.org/2000/svg">
<g clip-path="url(#clip0_104_382)">
<path d="M11.7286 20.4028C10.5422 20.6113 9.33499 20.6739 8.08618 20.8404L4.27714 9.6738V21.3196C3.09079 21.4446 2.00849 21.6113 0.884521 21.7779V0.44458H4.04832L8.37753 12.5489V0.44458H11.7286V20.4028ZM18.285 8.25708C19.5755 8.25708 21.5528 8.19457 22.7392 8.19457V11.5278C21.2613 11.5278 19.5339 11.5278 18.285 11.5903V16.5488C20.2416 16.4238 22.1981 16.257 24.1753 16.1945V19.4026L14.9547 20.1319V0.44458H24.1753V3.77792H18.285V8.25708V8.25708ZM36.5596 3.778H33.1045V19.1113C31.9805 19.1113 30.8565 19.1113 29.7744 19.1529V3.778H26.3193V0.44458H36.5597L36.5596 3.778V3.778ZM41.9711 8.02798H46.5295V11.3612H41.9711V18.9238H38.7031V0.44458H48.0072V3.77792H41.9711V8.02798V8.02798ZM53.4188 16.0071C55.3129 16.0486 57.2277 16.1947 59.0802 16.2987V19.5904C56.1039 19.4028 53.1275 19.2155 50.0887 19.1529V0.44458H53.4188V16.0071ZM61.8901 19.8196C62.9516 19.8822 64.0756 19.9447 65.1579 20.0695V0.44458H61.8901V19.8196V19.8196ZM79.7485 0.44458L75.5232 10.5904L79.7485 21.7779C78.4996 21.6113 77.2508 21.3821 76.0019 21.1737L73.6084 15.0072L71.1734 20.6739C69.9659 20.4653 68.8004 20.4028 67.5934 20.2362L71.881 10.4653L68.0095 0.44458H71.5893L73.7748 6.04876L76.1061 0.44458H79.7485V0.44458Z" fill="#999999"/>
</g>
<defs>
<clipPath id="clip0_104_382">
<rect width="78.864" height="21.3333" fill="white" transform="translate(0.884521 0.44458)"/>
</clipPath>
</defs>
</svg>
