<svg width="85" height="22" viewBox="0 0 85 22" fill="none" xmlns="http://www.w3.org/2000/svg">
<g clip-path="url(#clip0_104_375)">
<path d="M27.3135 17.1585L28.3549 14.7396C29.4804 15.5795 30.9754 16.0162 32.4536 16.0162C33.5455 16.0162 34.2342 15.5963 34.2342 14.9579C34.2174 13.1774 27.6998 14.5716 27.6494 10.1033C27.6326 7.83563 29.6484 6.08865 32.504 6.08865C34.2006 6.08865 35.8972 6.5086 37.1067 7.46608L36.1324 9.93537C35.0237 9.22986 33.6463 8.72592 32.336 8.72592C31.4458 8.72592 30.8578 9.14587 30.8578 9.6834C30.8746 11.4304 37.4426 10.4729 37.5098 14.7396C37.5098 17.0577 35.5444 18.6871 32.7224 18.6871C30.6563 18.6871 28.7581 18.1999 27.3135 17.1585ZM67.2757 13.8661C66.7549 14.7732 65.7807 15.3947 64.6552 15.3947C62.9922 15.3947 61.6484 14.0509 61.6484 12.3879C61.6484 10.7249 62.9922 9.38104 64.6552 9.38104C65.7807 9.38104 66.7549 10.0026 67.2757 10.9096L70.1481 9.31385C69.0731 7.39889 67.0069 6.08865 64.6552 6.08865C61.178 6.08865 58.356 8.9107 58.356 12.3879C58.356 15.865 61.178 18.6871 64.6552 18.6871C67.0237 18.6871 69.0731 17.3936 70.1481 15.4619L67.2757 13.8661V13.8661ZM38.9544 0.864502H42.5492V18.4519H38.9544V0.864502ZM71.5591 0.864502V18.4519H75.1539V13.1774L79.4206 18.4519H84.0232L78.5975 12.1863L83.62 6.34062H79.219L75.1539 11.1952V0.864502H71.5591ZM53.2326 13.8997C52.7119 14.7564 51.6368 15.3947 50.4274 15.3947C48.7644 15.3947 47.4206 14.0509 47.4206 12.3879C47.4206 10.7249 48.7644 9.38104 50.4274 9.38104C51.6368 9.38104 52.7119 10.053 53.2326 10.9264V13.8997ZM53.2326 6.34062V7.76844C52.6447 6.77736 51.1833 6.08865 49.6547 6.08865C46.4967 6.08865 44.0106 8.8771 44.0106 12.3711C44.0106 15.865 46.4967 18.6871 49.6547 18.6871C51.1833 18.6871 52.6447 17.9984 53.2326 17.0073V18.4351H56.8274V6.34062H53.2326Z" fill="#999999"/>
<path d="M5.08992 13.8828C5.08992 15.1091 4.09884 16.1002 2.8726 16.1002C1.64635 16.1002 0.655273 15.1091 0.655273 13.8828C0.655273 12.6566 1.64635 11.6655 2.8726 11.6655H5.08992V13.8828ZM6.19858 13.8828C6.19858 12.6566 7.18966 11.6655 8.4159 11.6655C9.64215 11.6655 10.6332 12.6566 10.6332 13.8828V19.4262C10.6332 20.6524 9.64215 21.6435 8.4159 21.6435C7.18966 21.6435 6.19858 20.6524 6.19858 19.4262V13.8828Z" fill="#999999"/>
<path d="M8.4161 4.98006C7.18985 4.98006 6.19878 3.98898 6.19878 2.76273C6.19878 1.53649 7.18985 0.54541 8.4161 0.54541C9.64235 0.54541 10.6334 1.53649 10.6334 2.76273V4.98006H8.4161ZM8.4161 6.10552C9.64235 6.10552 10.6334 7.09659 10.6334 8.32284C10.6334 9.54909 9.64235 10.5402 8.4161 10.5402H2.85599C1.62975 10.5402 0.638672 9.54909 0.638672 8.32284C0.638672 7.09659 1.62975 6.10552 2.85599 6.10552H8.4161Z" fill="#999999"/>
<path d="M17.3021 8.32284C17.3021 7.09659 18.2932 6.10552 19.5194 6.10552C20.7457 6.10552 21.7367 7.09659 21.7367 8.32284C21.7367 9.54909 20.7457 10.5402 19.5194 10.5402H17.3021V8.32284ZM16.1934 8.32284C16.1934 9.54909 15.2024 10.5402 13.9761 10.5402C12.7499 10.5402 11.7588 9.54909 11.7588 8.32284V2.76273C11.7588 1.53649 12.7499 0.54541 13.9761 0.54541C15.2024 0.54541 16.1934 1.53649 16.1934 2.76273V8.32284V8.32284Z" fill="#999999"/>
<path d="M13.9761 17.2088C15.2024 17.2088 16.1934 18.1999 16.1934 19.4262C16.1934 20.6524 15.2024 21.6435 13.9761 21.6435C12.7499 21.6435 11.7588 20.6524 11.7588 19.4262V17.2088H13.9761ZM13.9761 16.1002C12.7499 16.1002 11.7588 15.1091 11.7588 13.8828C11.7588 12.6566 12.7499 11.6655 13.9761 11.6655H19.5362C20.7625 11.6655 21.7535 12.6566 21.7535 13.8828C21.7535 15.1091 20.7625 16.1002 19.5362 16.1002H13.9761Z" fill="#999999"/>
</g>
<defs>
<clipPath id="clip0_104_375">
<rect width="83.6535" height="21.3333" fill="white" transform="translate(0.520996 0.44458)"/>
</clipPath>
</defs>
</svg>
